<?xml version="1.0" encoding="UTF-8" standalone="no"?>
<!-- Created with Inkscape (http://www.inkscape.org/) -->

<svg
   width="117.19736mm"
   height="117.19772mm"
   viewBox="0 0 117.19736 117.19772"
   version="1.1"
   id="svg4690"
   xmlns="http://www.w3.org/2000/svg"
   xmlns:svg="http://www.w3.org/2000/svg">
  <defs
     id="defs4687" />
  <g
     id="layer1"
     transform="translate(88.802073,179.41242)">
    <path
       id="path7"
       d="M -65.238626,-179.41242 H 4.8318506 c 13.0220874,0 23.5634394,10.54172 23.5634394,23.35707 v 70.276855 c 0,13.022103 -10.541352,23.563791 -23.5634394,23.563791 H -65.238626 c -13.022103,0 -23.563447,-10.541688 -23.563447,-23.563791 v -70.276855 c 0,-12.81535 10.541344,-23.35707 23.563447,-23.35707 v 0"
       style="fill:#0077ff;fill-opacity:1;fill-rule:evenodd;stroke:none;stroke-width:0.0352777" />
    <path
       d="m -54.566207,-143.92703 h -12.67886 c 0.601557,28.87445 15.038784,46.226913 40.350201,46.226913 h 1.434465 V -114.2197 c 9.300927,0.92549 16.3344411,7.72764 19.1571034,16.519583 H 6.8382759 C 3.228973,-110.84176 -6.2570273,-118.10664 -12.17999,-120.88301 c 5.9229627,-3.42422 14.2521332,-11.75335 16.2418819,-23.04402 H -7.8765895 c -2.5912975,9.16207 -10.2726595,17.49126 -17.5838115,18.27786 v -18.27786 h -11.938476 v 32.02106 c -7.403729,-1.85097 -16.750903,-10.82794 -17.16733,-32.02106 z"
       id="path3570"
       style="fill:#ffffff;stroke-width:4.62732" />
  </g>
</svg>
