<?xml version="1.0" encoding="UTF-8" standalone="no"?>
<!-- Created with Inkscape (http://www.inkscape.org/) -->

<svg
   width="116.99168mm"
   height="117.19983mm"
   viewBox="0 0 116.99168 117.19982"
   version="1.1"
   id="svg4690"
   xmlns="http://www.w3.org/2000/svg"
   xmlns:svg="http://www.w3.org/2000/svg">
  <defs
     id="defs4687" />
  <g
     id="layer1"
     transform="translate(88.077575,120.07106)">
    <path
       id="path38"
       d="M -64.55789,-120.07106 H 5.5955019 c 12.7952501,0 23.3186101,10.7315 23.3186101,23.523205 v 70.153397 c 0,12.999852 -10.52336,23.5232306 -23.3186101,23.5232306 H -64.55789 c -12.996333,0 -23.519685,-10.5233786 -23.519685,-23.5232306 v -70.153397 c 0,-12.791705 10.523352,-23.523205 23.519685,-23.523205 v 0"
       style="fill:#231f20;fill-opacity:1;fill-rule:evenodd;stroke:none;stroke-width:0.0352777" />
    <path
       d="M -10.494469,-90.575312 H -0.31607128 L -22.553675,-65.156966 3.6086924,-30.575312 H -16.87533 l -16.042036,-20.976354 -18.359837,20.976354 h -10.183935 l 23.786481,-27.188509 -25.097509,-32.808709 h 21.004036 l 14.501455,19.173 z m -3.570744,53.909564 h 5.6396022 L -44.832712,-84.802957 h -6.051735 z"
       id="path1717"
       style="fill:#ffffff;stroke-width:2.76586" />
  </g>
</svg>
