<?xml version="1.0" encoding="UTF-8" standalone="no"?>
<!-- Created with Inkscape (http://www.inkscape.org/) -->

<svg
   width="116.99099mm"
   height="117.19984mm"
   viewBox="0 0 116.99099 117.19983"
   version="1.1"
   id="svg4690"
   xmlns="http://www.w3.org/2000/svg"
   xmlns:svg="http://www.w3.org/2000/svg">
  <defs
     id="defs4687" />
  <g
     id="layer1"
     transform="translate(59.204351,-35.076645)">
    <path
       id="path19"
       d="m -35.682523,35.076645 h 69.947001 c 12.999156,0 23.522162,10.7315 23.522162,23.523204 v 70.153401 c 0,12.99985 -10.523006,23.52323 -23.522162,23.52323 h -69.947001 c -12.999164,0 -23.521828,-10.52338 -23.521828,-23.52323 V 58.599849 c 0,-12.791704 10.522664,-23.523204 23.521828,-23.523204 v 0"
       style="fill:#ee8208;fill-opacity:1;fill-rule:evenodd;stroke:none;stroke-width:0.0352777" />
    <path
       d="M -0.71148544,55.973436 A 19.479922,19.479922 0 0 0 -20.172542,75.437641 19.479922,19.479922 0 0 0 -0.7083369,94.892427 19.479922,19.479922 0 0 0 18.749619,75.437641 19.479922,19.479922 0 0 0 -0.7083369,55.973436 Z m 0,11.405182 a 8.0653156,8.0653156 0 0 1 8.05902304,8.059023 8.0684578,8.0684578 0 0 1 -8.0558745,8.055875 8.0684578,8.0684578 0 0 1 -8.0590495,-8.055875 8.0653156,8.0653156 0 0 1 8.0590495,-8.055901 z M -17.027466,95.561664 a 5.699448,5.699448 0 0 0 -2.859167,10.525446 36.480866,36.480866 0 0 0 11.3014916,4.68145 L -19.46248,121.64905 a 5.7025899,5.7025899 0 0 0 8.065347,8.06217 L -0.71148544,119.01928 9.9867563,129.71122 a 5.6963061,5.6963061 0 0 0 8.0559297,0 c 2.230769,-2.22763 2.230769,-5.83768 0,-8.06217 L 7.1653455,110.77171 a 36.424311,36.424311 0 0 0 11.2983595,-4.68148 5.7023864,5.7023864 0 1 0 -6.070219,-9.655097 24.717507,24.717507 0 0 1 -26.203619,0 c -0.999146,-0.628385 -2.117672,-0.911172 -3.217333,-0.873469 z"
       id="path1728"
       style="fill:#ffffff;stroke-width:3.14193" />
  </g>
</svg>
