<?xml version="1.0" encoding="UTF-8" standalone="no"?>
<!-- Created with Inkscape (http://www.inkscape.org/) -->

<svg
   width="116.99136mm"
   height="117.19984mm"
   viewBox="0 0 116.99137 117.19983"
   version="1.1"
   id="svg4690"
   xmlns="http://www.w3.org/2000/svg"
   xmlns:svg="http://www.w3.org/2000/svg">
  <defs
     id="defs4687" />
  <path
     id="path14"
     d="m 23.52217,0 h 69.947018 c 12.999152,0 23.522162,10.7315 23.522162,23.523223 v 70.153398 c 0,12.999859 -10.52301,23.523219 -23.522162,23.523219 H 23.52217 C 10.52337,117.19984 0,106.67648 0,93.676621 V 23.523223 C 0,10.7315 10.52337,0 23.52217,0 v 0"
     style="fill:#1877f2;fill-opacity:1;fill-rule:evenodd;stroke:none;stroke-width:0.0352778" />
  <path
     id="path15"
     d="M 49.969919,100.89092 H 65.764844 V 64.452501 H 77.431911 L 79.765183,49.734614 H 65.764844 V 38.608002 c 0,-4.1275 3.948994,-6.462889 7.718425,-6.462889 h 6.820606 V 19.939001 L 68.098469,19.402779 c -11.66707,-0.719667 -18.12855,8.434917 -18.12855,19.38514 v 10.946695 h -13.28243 v 14.717887 h 13.28243 v 36.438419"
     style="fill:#ffffff;fill-opacity:1;fill-rule:evenodd;stroke:none;stroke-width:0.0352778" />
</svg>
