<?xml version="1.0" encoding="UTF-8" standalone="no"?>
<!-- Created with Inkscape (http://www.inkscape.org/) -->

<svg
   width="117.19737mm"
   height="117.19984mm"
   viewBox="0 0 117.19738 117.19983"
   version="1.1"
   id="svg4690"
   xmlns="http://www.w3.org/2000/svg"
   xmlns:svg="http://www.w3.org/2000/svg">
  <defs
     id="defs4687" />
  <g
     id="layer1"
     transform="translate(-92.00701,-210.41544)">
    <path
       id="path29"
       d="m 115.57046,210.41544 h 70.07048 c 13.02174,0 23.56344,10.541 23.56344,23.56557 v 70.0687 c 0,13.02105 -10.5417,23.56557 -23.56344,23.56557 h -70.07048 c -13.02174,0 -23.56345,-10.54452 -23.56345,-23.56557 v -70.0687 c 0,-13.02457 10.54171,-23.56557 23.56345,-23.56557 v 0"
       style="fill:#0a66c2;fill-opacity:1;fill-rule:evenodd;stroke:none;stroke-width:0.0352777" />
    <path
       id="path30"
       d="m 139.78086,257.2608 h 12.92543 v 6.13833 c 2.74637,-4.03929 7.2704,-6.62517 12.44038,-6.62517 h 3.55459 c 8.23983,0 14.86394,6.78746 14.86394,14.86607 v 6.62516 7.91634 15.02481 h -12.92508 v -0.1623 -3.87701 0 -19.70969 0 c -0.16157,-5.00946 -3.55458,-8.88648 -8.56298,-8.88648 v 0 c -5.00875,0 -9.20927,3.87702 -9.37085,8.88648 v 0 17.12383 6.62517 h -12.92543 z m -14.3792,-22.29554 c 4.36208,0 7.91668,3.55245 7.91668,7.91633 0,4.36033 -3.5546,7.91633 -7.91668,7.91633 -4.36245,0 -7.75547,-3.556 -7.75547,-7.91633 0,-4.36388 3.39302,-7.91633 7.75547,-7.91633 z m -6.4629,22.29554 h 13.08701 v 43.94554 H 118.93876 V 257.2608"
       style="fill:#ffffff;fill-opacity:1;fill-rule:evenodd;stroke:none;stroke-width:0.0352777" />
  </g>
</svg>
