<?xml version="1.0" encoding="UTF-8" standalone="no"?>
<!-- Created with Inkscape (http://www.inkscape.org/) -->

<svg
   width="117.19735mm"
   height="117.19772mm"
   viewBox="0 0 117.19736 117.19771"
   version="1.1"
   id="svg4690"
   xmlns="http://www.w3.org/2000/svg"
   xmlns:svg="http://www.w3.org/2000/svg">
  <defs
     id="defs4687" />
  <g
     id="layer1"
     transform="translate(-111.1474,-178.22714)">
    <path
       id="path12"
       d="m 134.71083,178.22714 h 70.07048 c 13.02174,0 23.56344,10.54171 23.56344,23.35707 v 70.27685 c 0,13.02209 -10.5417,23.5638 -23.56344,23.5638 h -70.07048 c -13.02174,0 -23.56343,-10.54171 -23.56343,-23.5638 v -70.27685 c 0,-12.81536 10.54169,-23.35707 23.56343,-23.35707 v 0"
       style="fill:#26a5e4;fill-opacity:1;fill-rule:evenodd;stroke:none;stroke-width:0.0352777" />
    <path
       id="path13"
       d="m 136.0489,235.75603 c 15.32962,-6.42867 33.87339,-15.57691 49.94488,-21.75828 14.83536,-5.43948 14.58807,-3.95605 12.36275,10.87932 -1.73073,11.86814 -3.70876,23.73594 -5.68678,35.60444 -0.7419,5.68678 -3.70876,8.65364 -9.89013,5.19219 L 163.4936,252.07482 c -2.71954,-2.22532 -1.97765,-3.95605 0.24765,-6.18137 l 17.80189,-16.81304 c 4.69794,-4.69794 2.47261,-6.42867 -2.96686,-2.71992 l -24.47819,16.56574 c -3.46146,2.47262 -7.17021,2.47262 -11.12626,1.23649 l -8.40671,-2.96722 c -5.43946,-1.97802 -1.23613,-4.20299 1.48378,-5.43947 v 0"
       style="fill:#ffffff;fill-opacity:1;fill-rule:evenodd;stroke:none;stroke-width:0.0352777" />
  </g>
</svg>
